<mxfile host="Electron" modified="2024-12-20T14:12:18.548Z" agent="Mozilla/5.0 (Windows NT 10.0; Win64; x64) AppleWebKit/537.36 (KHTML, like Gecko) draw.io/24.0.4 Chrome/120.0.6099.109 Electron/28.1.0 Safari/537.36" etag="sQTxwCiee3vL1catwZSh" version="24.0.4" type="device">
  <diagram name="Страница — 1" id="dci9rqPElxdWUPR3qYBH">
    <mxGraphModel dx="989" dy="582" grid="1" gridSize="10" guides="1" tooltips="1" connect="1" arrows="1" fold="1" page="1" pageScale="1" pageWidth="827" pageHeight="1169" math="0" shadow="0">
      <root>
        <mxCell id="0" />
        <mxCell id="1" parent="0" />
        <mxCell id="bQgEIjcRsBZdk4zWhYOA-10" value="" style="rounded=0;whiteSpace=wrap;html=1;fillColor=none;fontColor=#ff0000;strokeColor=#000000;" vertex="1" parent="1">
          <mxGeometry x="20" y="320" width="820" height="300" as="geometry" />
        </mxCell>
        <mxCell id="bQgEIjcRsBZdk4zWhYOA-11" value="&lt;p style=&quot;margin: 6px 0px 0px;&quot;&gt;&lt;b&gt;&amp;lt;&amp;lt;Component&amp;gt;&amp;gt;&lt;/b&gt;&lt;/p&gt;&lt;hr size=&quot;1&quot; style=&quot;border-style:solid;&quot;&gt;&lt;p style=&quot;margin: 0px 0px 0px 8px;&quot;&gt;MainWindow&lt;/p&gt;" style="align=center;overflow=fill;html=1;dropTarget=0;whiteSpace=wrap;strokeColor=#000000;" vertex="1" parent="1">
          <mxGeometry x="340" y="330" width="180" height="90" as="geometry" />
        </mxCell>
        <mxCell id="bQgEIjcRsBZdk4zWhYOA-12" value="" style="shape=component;jettyWidth=8;jettyHeight=4;" vertex="1" parent="bQgEIjcRsBZdk4zWhYOA-11">
          <mxGeometry x="1" width="20" height="20" relative="1" as="geometry">
            <mxPoint x="-24" y="4" as="offset" />
          </mxGeometry>
        </mxCell>
        <mxCell id="bQgEIjcRsBZdk4zWhYOA-13" value="&lt;p style=&quot;margin:0px;margin-top:6px;text-align:center;&quot;&gt;&lt;b&gt;&amp;lt;&amp;lt;Component&amp;gt;&amp;gt;&lt;/b&gt;&lt;br&gt;&lt;/p&gt;&lt;hr size=&quot;1&quot; style=&quot;border-style:solid;&quot;&gt;&lt;p style=&quot;text-align: center; margin: 0px 0px 0px 8px;&quot;&gt;Timer&lt;/p&gt;" style="align=left;overflow=fill;html=1;dropTarget=0;whiteSpace=wrap;" vertex="1" parent="1">
          <mxGeometry x="340" y="520" width="180" height="90" as="geometry" />
        </mxCell>
        <mxCell id="bQgEIjcRsBZdk4zWhYOA-14" value="" style="shape=component;jettyWidth=8;jettyHeight=4;" vertex="1" parent="bQgEIjcRsBZdk4zWhYOA-13">
          <mxGeometry x="1" width="20" height="20" relative="1" as="geometry">
            <mxPoint x="-24" y="4" as="offset" />
          </mxGeometry>
        </mxCell>
        <mxCell id="bQgEIjcRsBZdk4zWhYOA-15" value="&lt;p style=&quot;margin:0px;margin-top:6px;text-align:center;&quot;&gt;&lt;b&gt;&amp;lt;&amp;lt;Component&amp;gt;&amp;gt;&lt;/b&gt;&lt;br&gt;&lt;/p&gt;&lt;hr size=&quot;1&quot; style=&quot;border-style:solid;&quot;&gt;&lt;p style=&quot;text-align: center; margin: 0px 0px 0px 8px;&quot;&gt;Graph Display&lt;/p&gt;" style="align=left;overflow=fill;html=1;dropTarget=0;whiteSpace=wrap;" vertex="1" parent="1">
          <mxGeometry x="647" y="330" width="180" height="90" as="geometry" />
        </mxCell>
        <mxCell id="bQgEIjcRsBZdk4zWhYOA-16" value="" style="shape=component;jettyWidth=8;jettyHeight=4;" vertex="1" parent="bQgEIjcRsBZdk4zWhYOA-15">
          <mxGeometry x="1" width="20" height="20" relative="1" as="geometry">
            <mxPoint x="-24" y="4" as="offset" />
          </mxGeometry>
        </mxCell>
        <mxCell id="bQgEIjcRsBZdk4zWhYOA-17" value="&lt;p style=&quot;margin:0px;margin-top:6px;text-align:center;&quot;&gt;&lt;b&gt;&amp;lt;&amp;lt;Component&amp;gt;&amp;gt;&lt;/b&gt;&lt;br&gt;&lt;/p&gt;&lt;hr size=&quot;1&quot; style=&quot;border-style:solid;&quot;&gt;&lt;p style=&quot;text-align: center; margin: 0px 0px 0px 8px;&quot;&gt;Humidity Data&lt;/p&gt;" style="align=left;overflow=fill;html=1;dropTarget=0;whiteSpace=wrap;" vertex="1" parent="1">
          <mxGeometry x="30" y="330" width="180" height="90" as="geometry" />
        </mxCell>
        <mxCell id="bQgEIjcRsBZdk4zWhYOA-18" value="" style="shape=component;jettyWidth=8;jettyHeight=4;" vertex="1" parent="bQgEIjcRsBZdk4zWhYOA-17">
          <mxGeometry x="1" width="20" height="20" relative="1" as="geometry">
            <mxPoint x="-24" y="4" as="offset" />
          </mxGeometry>
        </mxCell>
        <mxCell id="bQgEIjcRsBZdk4zWhYOA-19" value="Система контроля влажности" style="rounded=0;whiteSpace=wrap;html=1;fillColor=#ff0000;fontColor=#ffffff;" vertex="1" parent="1">
          <mxGeometry x="20" y="300" width="200" height="20" as="geometry" />
        </mxCell>
        <mxCell id="bQgEIjcRsBZdk4zWhYOA-20" value="" style="rounded=0;orthogonalLoop=1;jettySize=auto;html=1;endArrow=halfCircle;endFill=0;endSize=6;strokeWidth=1;sketch=0;exitX=0.5;exitY=1;exitDx=0;exitDy=0;" edge="1" target="bQgEIjcRsBZdk4zWhYOA-22" parent="1" source="bQgEIjcRsBZdk4zWhYOA-11">
          <mxGeometry relative="1" as="geometry">
            <mxPoint x="560" y="490" as="sourcePoint" />
            <mxPoint x="560" y="390" as="targetPoint" />
          </mxGeometry>
        </mxCell>
        <mxCell id="bQgEIjcRsBZdk4zWhYOA-21" value="" style="rounded=0;orthogonalLoop=1;jettySize=auto;html=1;endArrow=oval;endFill=0;sketch=0;sourcePerimeterSpacing=0;targetPerimeterSpacing=0;endSize=10;exitX=0.5;exitY=0;exitDx=0;exitDy=0;strokeColor=#ff0000;" edge="1" target="bQgEIjcRsBZdk4zWhYOA-22" parent="1" source="bQgEIjcRsBZdk4zWhYOA-13">
          <mxGeometry relative="1" as="geometry">
            <mxPoint x="240" y="470" as="sourcePoint" />
          </mxGeometry>
        </mxCell>
        <mxCell id="bQgEIjcRsBZdk4zWhYOA-22" value="" style="ellipse;whiteSpace=wrap;html=1;align=center;aspect=fixed;fillColor=#FF1F1F;strokeColor=none;resizable=0;perimeter=centerPerimeter;rotatable=0;allowArrows=0;points=[];outlineConnect=1;fontColor=#ff0000;fillStyle=auto;" vertex="1" parent="1">
          <mxGeometry x="425" y="480" width="10" height="10" as="geometry" />
        </mxCell>
        <mxCell id="bQgEIjcRsBZdk4zWhYOA-24" value="" style="whiteSpace=wrap;html=1;aspect=fixed;fillColor=#00ff00;" vertex="1" parent="1">
          <mxGeometry x="420" y="410" width="20" height="20" as="geometry" />
        </mxCell>
        <mxCell id="bQgEIjcRsBZdk4zWhYOA-25" value="" style="whiteSpace=wrap;html=1;aspect=fixed;fillColor=#ff0000;" vertex="1" parent="1">
          <mxGeometry x="420" y="510" width="20" height="20" as="geometry" />
        </mxCell>
        <mxCell id="bQgEIjcRsBZdk4zWhYOA-26" value="" style="rounded=0;orthogonalLoop=1;jettySize=auto;html=1;endArrow=halfCircle;endFill=0;endSize=6;strokeWidth=1;sketch=0;exitX=0;exitY=0.5;exitDx=0;exitDy=0;entryX=0.727;entryY=0.685;entryDx=0;entryDy=0;entryPerimeter=0;" edge="1" target="bQgEIjcRsBZdk4zWhYOA-28" parent="1" source="bQgEIjcRsBZdk4zWhYOA-11">
          <mxGeometry relative="1" as="geometry">
            <mxPoint x="320" y="395" as="sourcePoint" />
          </mxGeometry>
        </mxCell>
        <mxCell id="bQgEIjcRsBZdk4zWhYOA-27" value="" style="rounded=0;orthogonalLoop=1;jettySize=auto;html=1;endArrow=oval;endFill=0;sketch=0;sourcePerimeterSpacing=0;targetPerimeterSpacing=0;endSize=10;exitX=1;exitY=0.5;exitDx=0;exitDy=0;entryX=-0.023;entryY=0.319;entryDx=0;entryDy=0;entryPerimeter=0;fillColor=#ff0000;strokeColor=#ff0000;" edge="1" target="bQgEIjcRsBZdk4zWhYOA-28" parent="1" source="bQgEIjcRsBZdk4zWhYOA-17">
          <mxGeometry relative="1" as="geometry">
            <mxPoint x="209.99999999999994" y="372.5" as="sourcePoint" />
            <mxPoint x="290" y="377.5" as="targetPoint" />
          </mxGeometry>
        </mxCell>
        <mxCell id="bQgEIjcRsBZdk4zWhYOA-28" value="" style="ellipse;whiteSpace=wrap;html=1;align=center;aspect=fixed;fillColor=#ff0000;strokeColor=none;resizable=0;perimeter=centerPerimeter;rotatable=0;allowArrows=0;points=[];outlineConnect=1;" vertex="1" parent="1">
          <mxGeometry x="270" y="370" width="10" height="10" as="geometry" />
        </mxCell>
        <mxCell id="bQgEIjcRsBZdk4zWhYOA-29" value="" style="whiteSpace=wrap;html=1;aspect=fixed;fillColor=#00ff00;" vertex="1" parent="1">
          <mxGeometry x="330" y="365" width="20" height="20" as="geometry" />
        </mxCell>
        <mxCell id="bQgEIjcRsBZdk4zWhYOA-30" value="" style="whiteSpace=wrap;html=1;aspect=fixed;fillColor=#ff0000;" vertex="1" parent="1">
          <mxGeometry x="200" y="365" width="20" height="20" as="geometry" />
        </mxCell>
        <mxCell id="bQgEIjcRsBZdk4zWhYOA-33" value="" style="ellipse;whiteSpace=wrap;html=1;align=center;aspect=fixed;fillColor=none;strokeColor=none;resizable=0;perimeter=centerPerimeter;rotatable=0;allowArrows=0;points=[];outlineConnect=1;" vertex="1" parent="1">
          <mxGeometry x="585" y="375" width="10" height="10" as="geometry" />
        </mxCell>
        <mxCell id="bQgEIjcRsBZdk4zWhYOA-35" value="" style="rounded=0;orthogonalLoop=1;jettySize=auto;html=1;endArrow=halfCircle;endFill=0;endSize=6;strokeWidth=1;sketch=0;exitX=1;exitY=0.5;exitDx=0;exitDy=0;" edge="1" target="bQgEIjcRsBZdk4zWhYOA-37" parent="1" source="bQgEIjcRsBZdk4zWhYOA-11">
          <mxGeometry relative="1" as="geometry">
            <mxPoint x="520" y="370" as="sourcePoint" />
          </mxGeometry>
        </mxCell>
        <mxCell id="bQgEIjcRsBZdk4zWhYOA-36" value="" style="rounded=0;orthogonalLoop=1;jettySize=auto;html=1;endArrow=oval;endFill=0;sketch=0;sourcePerimeterSpacing=0;targetPerimeterSpacing=0;endSize=10;exitX=0;exitY=0.5;exitDx=0;exitDy=0;strokeColor=#ff0000;" edge="1" target="bQgEIjcRsBZdk4zWhYOA-37" parent="1" source="bQgEIjcRsBZdk4zWhYOA-15">
          <mxGeometry relative="1" as="geometry">
            <mxPoint x="570" y="380" as="sourcePoint" />
          </mxGeometry>
        </mxCell>
        <mxCell id="bQgEIjcRsBZdk4zWhYOA-37" value="" style="ellipse;whiteSpace=wrap;html=1;align=center;aspect=fixed;fillColor=#ff0000;strokeColor=none;resizable=0;perimeter=centerPerimeter;rotatable=0;allowArrows=0;points=[];outlineConnect=1;" vertex="1" parent="1">
          <mxGeometry x="585" y="370" width="10" height="10" as="geometry" />
        </mxCell>
        <mxCell id="bQgEIjcRsBZdk4zWhYOA-38" value="" style="whiteSpace=wrap;html=1;aspect=fixed;fillColor=#ff0000;" vertex="1" parent="1">
          <mxGeometry x="640" y="365" width="20" height="20" as="geometry" />
        </mxCell>
        <mxCell id="bQgEIjcRsBZdk4zWhYOA-40" value="" style="whiteSpace=wrap;html=1;aspect=fixed;strokeColor=#000000;fillColor=#00ff00;" vertex="1" parent="1">
          <mxGeometry x="510" y="365" width="20" height="20" as="geometry" />
        </mxCell>
      </root>
    </mxGraphModel>
  </diagram>
</mxfile>
